Coordinates
version=1
nRows=16
nColumns=22
inDegrees=yes

Units are S.I. units (second, meters, Newtons, ...)
If the header above contains a line with 'inDegrees', this indicates whether rotational values are in degrees (yes) or radians (no).

endheader
time	pelvis_tilt	pelvis_list	pelvis_rotation	pelvis_tx	pelvis_ty	pelvis_tz	hip_flexion_r	hip_adduction_r	hip_rotation_r	knee_angle_r	ankle_angle_r	subtalar_angle_r	hip_flexion_l	hip_adduction_l	hip_rotation_l	knee_angle_l	ankle_angle_l	subtalar_angle_l	lumbar_extension	lumbar_bending	lumbar_rotation
      3.58000000	      0.86574102	      0.78132076	    174.39286318	      0.18357031	      1.00594885	     -0.03258117	      2.29416175	      3.70618144	      0.62165378	    -21.39404173	     16.81407202	     -0.36313062	     16.64076720	     -2.53548728	     -4.08572280	    -20.65766593	      7.63206390	     -0.85181481	    -15.03356751	     -0.60601354	      5.01861688
      3.59000000	      0.97345797	      0.80788154	    174.45050947	      0.18817582	      1.00591351	     -0.03424230	      2.52168988	      3.87654234	      0.50175328	    -21.10181964	     16.78003180	     -0.66974819	     16.94437775	     -2.67376519	     -3.97263029	    -20.52292427	      7.74398291	     -0.53888644	    -15.12943873	     -0.58463005	      4.99900566
      3.60000000	      1.08668960	      0.83055930	    174.51561257	      0.19268909	      1.00594893	     -0.03584142	      2.76218537	      4.03544865	      0.36356994	    -20.82741230	     16.70649928	     -0.96481843	     17.24070320	     -2.80051198	     -3.84739620	    -20.37883558	      7.90317386	     -0.18724415	    -15.20713802	     -0.56781139	      5.01077296
      3.61000000	      1.19869570	      0.86909436	    174.59844042	      0.19707167	      1.00607397	     -0.03734637	      3.00218778	      4.20287693	      0.21140213	    -20.56682992	     16.58297078	     -1.21199825	     17.50929203	     -2.93243697	     -3.71902051	    -20.20267813	      8.12537662	      0.14763605	    -15.27186750	     -0.51992087	      5.00931428
      3.62000000	      1.30240836	      0.91372456	    174.69415087	      0.20131414	      1.00628985	     -0.03878860	      3.23037296	      4.36953552	      0.05492405	    -20.31399886	     16.41285477	     -1.40541456	     17.75320769	     -3.06635891	     -3.61662407	    -20.01834858	      8.39167471	      0.43907810	    -15.33036758	     -0.46319438	      4.99725157
      3.63000000	      1.38748651	      0.97205222	    174.80554201	      0.20538743	      1.00661001	     -0.04017073	      3.41565348	      4.54298410	     -0.10433090	    -20.03525646	     16.20733015	     -1.52196982	     17.96989773	     -3.21159251	     -3.55898383	    -19.84885448	      8.66746904	      0.63759094	    -15.39079976	     -0.39174097	      4.99449208
      3.64000000	      1.46591423	      1.02663741	    174.91742658	      0.20931023	      1.00700432	     -0.04150076	      3.58960562	      4.70716538	     -0.24333558	    -19.76403553	     15.97123551	     -1.60949931	     18.16549792	     -3.35679497	     -3.58471228	    -19.68334769	      8.93390320	      0.80511368	    -15.44077364	     -0.32321374	      4.99172212
      3.65000000	      1.53335697	      1.07112353	    175.02265817	      0.21307523	      1.00747001	     -0.04280338	      3.74610464	      4.85613157	     -0.36450775	    -19.49776909	     15.71038545	     -1.66897938	     18.33551550	     -3.49944251	     -3.71372071	    -19.53179619	      9.16492710	      0.94080475	    -15.48381177	     -0.27054533	      4.99483437
      3.66000000	      1.59665777	      1.10591675	    175.12382550	      0.21667708	      1.00798046	     -0.04407453	      3.87469963	      4.99207821	     -0.46636669	    -19.20265268	     15.44342178	     -1.72242396	     18.50299743	     -3.64116693	     -3.95032724	    -19.43426442	      9.34071239	      1.07848580	    -15.51032791	     -0.23563527	      5.01995619
      3.67000000	      1.64297009	      1.12833310	    175.21390699	      0.22012040	      1.00854554	     -0.04530536	      3.97304085	      5.10917671	     -0.55287742	    -18.90292674	     15.16352662	     -1.75815781	     18.64526734	     -3.77854330	     -4.30088002	    -19.38274560	      9.45431180	      1.19361555	    -15.53845647	     -0.21643372	      5.05247080
      3.68000000	      1.67432208	      1.14078790	    175.29180365	      0.22341536	      1.00914869	     -0.04650233	      4.04269511	      5.21194442	     -0.62428256	    -18.59414500	     14.88048285	     -1.78633588	     18.76761009	     -3.91183266	     -4.74135261	    -19.39686924	      9.50610103	      1.29484844	    -15.56772854	     -0.21312019	      5.09710975
      3.69000000	      1.69292283	      1.14462104	    175.35678443	      0.22656633	      1.00977092	     -0.04766892	      4.08726032	      5.30306925	     -0.67670448	    -18.27959136	     14.59655557	     -1.81623870	     18.87181608	     -4.04074032	     -5.24507070	    -19.48601750	      9.50880063	      1.38913419	    -15.59619024	     -0.22302892	      5.15375399
      3.70000000	      1.69855459	      1.14065240	    175.41393886	      0.22958835	      1.01039928	     -0.04877896	      4.11448335	      5.38041900	     -0.72587078	    -17.97237398	     14.31331462	     -1.84525069	     18.95553118	     -4.15905633	     -5.76754760	    -19.65138643	      9.47215071	      1.45956587	    -15.62777190	     -0.23914591	      5.21230715
      3.71000000	      1.69442575	      1.13357332	    175.46754198	      0.23247951	      1.01101521	     -0.04986247	      4.12826109	      5.45266636	     -0.77320457	    -17.67416662	     14.03691993	     -1.87657158	     19.01833301	     -4.26922815	     -6.26565985	    -19.89178902	      9.41775142	      1.50442398	    -15.65715017	     -0.26232226	      5.26514783
      3.72000000	      1.68258085	      1.12422032	    175.52398296	      0.23526224	      1.01160802	     -0.05085779	      4.13512018	      5.51504049	     -0.82842570	    -17.38897066	     13.76691240	     -1.90611223	     19.06277528	     -4.36291537	     -6.69886540	    -20.20482166	      9.35933967	      1.51961313	    -15.68870734	     -0.27579874	      5.31045604
      3.73000000	      1.66574942	      1.12401339	    175.57845489	      0.23790846	      1.01216509	     -0.05183232	      4.12953081	      5.58723305	     -0.87524653	    -17.10691503	     13.50040896	     -1.94763281	     19.08457065	     -4.45515468	     -7.04109885	    -20.58388635	      9.32342300	      1.51648402	    -15.71119927	     -0.28246783	      5.35523164
